<svg t="1622374219242" class="icon" viewBox="0 0 1024 1024" version="1.1" xmlns="http://www.w3.org/2000/svg" p-id="1568" width="64" height="64"><path d="M952.143 345.963v450.835a77.672 77.672 0 0 1-77.672 77.673H149.529a77.672 77.672 0 0 1-77.672-77.673V345.963l77.672 65.84v384.995h724.942V411.803l77.672-65.84z m-77.672-196.434a78.63 78.63 0 0 1 27.703 5.075 77.206 77.206 0 0 1 32.519 23.56 78.06 78.06 0 0 1 11.34 18.771 77.28 77.28 0 0 1 5.955 25.71l0.155 4.557v25.89L562.409 585.53a77.672 77.672 0 0 1-96.96 3.08l-3.858-3.106L71.857 253.092v-25.89a77.413 77.413 0 0 1 42.642-69.336 77.517 77.517 0 0 1 35.03-8.337h724.942z m-11.651 77.673H161.18L512 526.422l350.82-299.22z" p-id="1569"></path></svg>